HIERARCHY
ROOT Hips
{
  OFFSET 245.522 103.514 -252.392
  CHANNELS 6 Xposition Yposition Zposition Zrotation Xrotation Yrotation
  JOINT ToSpine
  {
    OFFSET -2.69724 7.43032 -0.144315
    CHANNELS 3 Zrotation Xrotation Yrotation
    JOINT Spine
    {
      OFFSET -0.0310711 10.7595 1.96963
      CHANNELS 3 Zrotation Xrotation Yrotation
      JOINT Spine1
      {
        OFFSET 19.9056 3.91189 0.764692
        CHANNELS 3 Zrotation Xrotation Yrotation
        JOINT Neck
        {
          OFFSET 25.9749 7.03908 -0.130764
          CHANNELS 3 Zrotation Xrotation Yrotation
          JOINT Head
          {
            OFFSET 9.52751 0.295786 -0.907742
            CHANNELS 3 Zrotation Xrotation Yrotation
            End Site
            {
              OFFSET 16.4037 0.713936 2.7358
            }
          }
        }
        JOINT LeftShoulder
        {
          OFFSET 17.7449 4.33886 11.7777
          CHANNELS 3 Zrotation Xrotation Yrotation
          JOINT LeftArm
          {
            OFFSET 0.911315 1.27913 9.80584
            CHANNELS 3 Zrotation Xrotation Yrotation
            JOINT LeftForeArm
            {
              OFFSET 28.6126 1.18197 -3.53199
              CHANNELS 3 Zrotation Xrotation Yrotation
              JOINT LeftHand
              {
                OFFSET 27.5088 0.0218783 0.327423
                CHANNELS 3 Zrotation Xrotation Yrotation
                End Site
                {
                  OFFSET 18.6038 -0.000155887 0.382096
                }
              }
            }
          }
        }
        JOINT RightShoulder
        {
          OFFSET 17.1009 2.89543 -12.2328
          CHANNELS 3 Zrotation Xrotation Yrotation
          JOINT RightArm
          {
            OFFSET 1.4228 0.178766 -10.211
            CHANNELS 3 Zrotation Xrotation Yrotation
            JOINT RightForeArm
            {
              OFFSET 28.733 1.87905 2.64907
              CHANNELS 3 Zrotation Xrotation Yrotation
              JOINT RightHand
              {
                OFFSET 27.4588 0.290562 -0.101845
                CHANNELS 3 Zrotation Xrotation Yrotation
                End Site
                {
                  OFFSET 17.8396 -0.255518 -0.000602873
                }
              }
            }
          }
        }
      }
    }
  }
  JOINT LeftUpLeg
  {
    OFFSET -5.61296 -2.22332 -10.2353
    CHANNELS 3 Zrotation Xrotation Yrotation
    JOINT LeftLeg
    {
      OFFSET 2.56703 -44.7417 -7.93097
      CHANNELS 3 Zrotation Xrotation Yrotation
      JOINT LeftFoot
      {
        OFFSET 3.16933 -46.5642 -3.96578
        CHANNELS 3 Zrotation Xrotation Yrotation
        JOINT LeftToeBase
        {
          OFFSET 0.346054 -6.02161 12.8035
          CHANNELS 3 Zrotation Xrotation Yrotation
          End Site
          {
            OFFSET 0.134235 -1.35082 5.13018
          }
        }
      }
    }
  }
  JOINT RightUpLeg
  {
    OFFSET -5.7928 -1.72406 10.6446
    CHANNELS 3 Zrotation Xrotation Yrotation
    JOINT RightLeg
    {
      OFFSET -2.57161 -44.7178 -7.85259
      CHANNELS 3 Zrotation Xrotation Yrotation
      JOINT RightFoot
      {
        OFFSET -3.10148 -46.5936 -4.03391
        CHANNELS 3 Zrotation Xrotation Yrotation
        JOINT RightToeBase
        {
          OFFSET -0.0828122 -6.13587 12.8035
          CHANNELS 3 Zrotation Xrotation Yrotation
          End Site
          {
            OFFSET -0.131328 -1.35082 5.13018
          }
        }
      }
    }
  }
}
MOTION
Frames:	13
Frame Time:	0.0333333
245.522 103.514 -252.392 -73.1667 -53.258 -161.795 -70.1915 0 88.8779 87.0156 68.6525 1.9156 7.72555 16.5841 7.39337 -145.758 19.0419 173.414 -149.463 55.5491 163.567 2.45695 -0.344132 -25.876 -80.5483 61.4404 -122.79 -11.0582 54.8575 6.12868 9.6433 -0.464876 -3.71048 0.519921 -2.17542 30.1123 -102.531 -49.0498 63.5176 1.53686 -21.9991 10.8001 5.80537 -0.195203 -4.68447 -77.5149 0.446056 82.1384 -2.78719 43.3729 -8.82229 1.55841 3.9474 -0.0715352 -6.5758 -25.5407 1.44701 -42.8939 0.173817 72.3631 2.40593 31.8924 -1.70886 -5.52399 -1.86433 0.883297 -3.59029 24.8127 -7.22025 
242.659 103.325 -249.771 -74.2831 -52.3536 -161.735 -70.1915 0 88.8779 90.5025 68.7782 -0.0582551 7.52035 16.9805 8.17716 -145.898 18.7948 173.838 -151.155 55.6518 164.857 2.50513 -0.189762 -26.1703 -84.6226 63.0374 -117.324 -14.9786 54.1703 11.768 4.38882 0.00870596 1.70297 0.518802 -2.22333 29.5029 -101.321 -49.3645 66.0558 1.38526 -21.0309 11.1302 5.90176 -0.252176 -5.83974 -73.6566 2.79841 85.1131 -3.56949 52.1884 -6.01923 0.954431 4.98913 0.0874535 -3.71821 -13.723 2.65371 -44.0472 1.91761 72.2447 2.42287 34.6982 -1.55397 -5.93749 -3.3424 0.956111 -2.79555 23.1296 -7.92149 
240.078 103.113 -247.581 -73.2948 -51.5158 -159.528 -70.1915 0 88.8779 93.0753 68.6865 -0.31778 6.86443 17.2755 8.08109 -145.654 18.7127 172.177 -150.05 55.4238 163.53 2.43287 -0.348449 -25.6086 -91.4819 64.574 -109.395 -15.7754 57.7985 14.0263 3.19885 -0.0223242 0.68901 0.530454 -2.26203 29.8546 -98.5995 -49.7885 70.1632 1.96452 -22.7225 12.0065 7.98617 -0.358444 -5.93616 -66.8247 4.29025 85.1216 -4.90665 61.9535 -0.640362 1.29403 7.61208 0.189043 -5.40074 -18.7869 9.78056 -44.285 3.65442 71.7169 2.77759 36.3989 -3.23946 -6.28869 -5.63205 1.02705 -3.56358 21.1313 -5.59733 
237.678 102.853 -245.298 -74.3359 -52.0045 -159.517 -70.1915 0 88.8779 96.8426 68.7227 -3.19973 7.37958 17.5983 8.77232 -146.122 19.039 172.41 -151.288 56.1845 165.673 2.44091 -0.954415 -26.7325 -97.4777 64.2079 -103.486 -17.3119 63.5611 16.7459 3.69887 -0.0641556 -0.371816 0.528412 -2.32007 29.1212 -98.1552 -49.8557 73.0939 1.67965 -18.0518 12.8465 7.51987 -0.172379 -3.22941 -61.2537 4.33912 84.2664 -6.51354 69.6317 6.15976 2.57832 9.07479 0.0218025 -5.85625 -21.3652 9.94243 -46.6205 4.2832 71.006 3.85049 37.9802 -2.40791 -4.8431 -9.07478 1.02327 -0.1061 21.6758 -12.3087 
235.072 102.918 -242.961 -74.9623 -51.0009 -159.471 -70.1915 0 88.8779 98.3094 69.1984 -2.99962 8.39867 18.5808 7.72812 -146.527 19.0418 171.192 -151.142 56.2959 165.739 2.4096 -0.928107 -26.3068 -100.339 64.496 -100.536 -16.6331 63.6998 16.8336 1.87162 0.0736672 5.06088 0.470617 -1.94571 29.2405 -95.6496 -50.2241 78.0133 1.41292 -16.0948 13.3761 6.78308 -0.124023 -2.67478 -55.6715 4.85417 84.4824 -8.79374 74.3601 10.1482 2.69134 8.46467 -0.0298018 -6.44848 -24.6463 11.1677 -48.2652 6.28955 72.755 4.45675 38.4715 -3.08379 -5.62904 -8.1903 1.03679 2.23533 15.5437 -14.4758 
232.554 103.036 -240.556 -74.413 -49.3504 -159.433 -70.1915 0 88.8779 97.9881 70.011 -1.52769 8.37581 19.6036 6.69717 -146.24 19.3012 170.922 -151.874 56.8389 166.862 2.43281 -0.841352 -26.4331 -106.468 63.4659 -94.0047 -17.0469 66.4079 18.6264 3.00317 0.00329087 1.50872 0.406635 -1.56103 28.9458 -91.5244 -50.7205 84.254 1.9473 -15.711 14.5827 8.7359 -0.193242 -3.09236 -49.609 4.26078 85.0923 -11.1013 76.4114 10.9652 2.73728 8.79329 -0.0230637 -6.79028 -26.6677 10.9313 -49.4524 7.40637 74.1783 4.55087 38.4574 -3.50295 -5.90648 -10.2026 1.0918 1.89588 15.1996 -13.6266 
230.013 103.04 -238.022 -75.0524 -47.2276 -160.871 -70.1915 0 88.8779 98.994 71.101 -1.84139 8.27533 21.015 5.64902 -145.879 19.5415 170.597 -151.835 57.0728 166.206 2.44392 -0.737421 -26.3836 -107.36 62.3532 -91.3655 -16.2337 64.8913 17.5737 4.42336 -0.00962955 1.26132 0.401593 -1.53786 28.7856 -87.0744 -50.6827 90.8911 2.29348 -14.7731 15.5939 10.5907 -0.119898 -1.741 -45.3854 3.55634 86.5675 -10.4373 75.6141 9.81376 3.90145 6.11137 -0.351764 -7.24401 -29.3584 11.3235 -51.2845 7.8655 75.1657 4.31436 39.0581 -2.56004 -6.95513 -12.5177 1.15214 1.44303 15.0204 -12.6072 
227.679 103.285 -234.955 -74.5006 -45.4395 -160.969 -70.1915 0 88.8779 95.8176 71.6363 3.53108 9.26049 21.963 3.31929 -145.428 19.487 170.893 -151.738 57.0043 166.44 2.45528 -0.707617 -26.4661 -109.112 60.9337 -87.7755 -16.1662 64.9072 17.5841 5.91668 -0.046026 0.704701 0.380171 -1.40296 28.7241 -81.7049 -49.9455 97.8561 2.53836 -12.5888 16.8341 9.5263 -0.171679 -2.57204 -41.3247 2.44979 87.12 -7.63639 72.1205 7.52127 4.72091 5.19939 -0.521305 -7.46571 -30.5309 10.9299 -52.8072 6.93526 74.6765 5.15035 39.7194 1.43878 -6.8897 -15.143 1.18257 2.66039 18.0762 -16.327 
224.849 103.467 -232.457 -76.0322 -44.4917 -163.01 -70.1915 0 88.8779 97.7133 72.1369 0.672585 9.1197 22.2444 3.44371 -145.084 19.2616 171.758 -151.039 56.5658 166.431 2.54796 -0.246447 -26.7447 -111.297 59.4385 -84.143 -15.9552 65.179 17.7626 5.63183 -0.0476302 0.625173 0.247802 -0.547373 27.8965 -77.1413 -49.3103 104.314 2.67315 -10.1649 17.9391 9.05956 -0.121183 -2.01023 -39.9501 2.00085 88.2163 -5.24362 66.0303 3.88358 4.60357 3.91705 -0.542663 -7.29322 -30.4694 14.3387 -57.0614 6.94235 75.4838 4.63725 37.8817 1.34127 -6.99578 -14.4048 1.17325 0.860125 13.5238 -10.6977 
222.22 103.571 -230.134 -76.4611 -44.2927 -163.654 -70.1915 0 88.8779 99.6145 72.678 -1.70014 8.2968 22.5357 3.68043 -145.05 19.4871 171.778 -150.952 56.755 166.051 2.46004 -0.74797 -26.593 -111.675 58.3266 -81.5286 -15.7523 64.3148 17.2088 4.90089 -0.174915 -2.31341 0.279181 -0.76036 27.8936 -71.2511 -47.3674 110.627 3.59603 -7.42237 20.1058 8.47018 -0.150151 -2.55698 -38.8536 1.45828 88.2495 -3.03162 57.3286 2.77942 3.70187 2.50184 -0.45973 -6.9775 -28.1989 14.1333 -60.4452 7.33056 75.8551 4.24584 36.1751 1.93541 -7.37583 -14.8124 1.17454 2.57814 11.2183 -13.324 
219.595 103.963 -227.726 -76.104 -43.459 -164.484 -70.1915 0 88.8779 98.1423 73.3984 -1.03062 7.98608 22.9596 3.2554 -145.306 19.4886 172.036 -150.884 56.6751 165.72 2.49606 -0.421415 -26.4504 -112.486 57.6676 -78.9201 -14.6207 62.2398 16.0298 4.07473 -0.114182 -1.49323 0.292512 -0.851781 27.8416 -69.1254 -45.5603 114.852 2.9943 -6.34904 19.9248 8.82872 -0.0526506 -1.1012 -38.554 0.880264 89.0558 -1.87134 46.6725 0.968655 3.4531 5.10067 -0.316249 -6.63632 -25.7683 16.3695 -63.7406 6.71121 76.0793 4.12222 33.4006 4.0105 -7.82403 -15.3662 1.17273 3.13856 11.7174 -14.788 
217.138 104.277 -225.545 -75.436 -42.4566 -165.04 -70.1915 0 88.8779 95.4797 74.0868 0.751697 8.09412 23.4545 2.60063 -145.305 19.3267 171.796 -150.311 56.3867 165.234 2.49889 -0.14182 -26.0234 -110.968 57.3806 -78.2609 -15.0902 61.4045 15.6041 4.476 -0.0657373 -0.0705818 0.281307 -0.772927 28.033 -65.202 -43.4817 118.787 3.86336 -4.42011 21.9758 8.57639 -0.0749442 -1.44557 -38.9134 0.462325 89.7035 -1.19393 34.8257 -0.131128 3.00679 7.03277 -0.155424 -6.08006 -20.8369 16.5608 -66.2214 6.61808 76.9173 3.37343 30.867 5.50225 -7.71424 -13.9947 1.16803 4.26176 7.64621 -15.5175 
214.71 104.498 -223.523 -75.1702 -41.4392 -165.462 -70.1915 0 88.8779 93.7844 74.8697 1.60288 8.38992 24.0595 2.55962 -145.513 19.4191 172.194 -150.979 56.5887 165.697 2.54467 -0.241741 -26.6997 -109.441 56.3377 -77.6564 -15.0602 59.2277 14.6111 3.97384 -0.0440082 0.298185 0.255326 -0.599349 27.5768 -64.4225 -42.9623 120.182 4.97396 -4.93038 23.6521 8.24724 -0.0470254 -1.07347 -39.9138 0.93214 92.3161 -0.255247 24.2323 -5.43261 2.72748 8.38384 -0.0406209 -5.77427 -17.3793 17.4669 -68.8097 6.84721 77.7097 2.81415 28.465 6.87156 -7.74469 -12.1593 1.1603 5.0785 3.29041 -15.3881 
